<?xml version="1.0" encoding="UTF-8" standalone="no"?>
<!-- Created with Inkscape (http://www.inkscape.org/) -->

<svg
   xmlns:dc="http://purl.org/dc/elements/1.1/"
   xmlns:cc="http://creativecommons.org/ns#"
   xmlns:rdf="http://www.w3.org/1999/02/22-rdf-syntax-ns#"
   xmlns:svg="http://www.w3.org/2000/svg"
   xmlns="http://www.w3.org/2000/svg"
   xmlns:sodipodi="http://sodipodi.sourceforge.net/DTD/sodipodi-0.dtd"
   xmlns:inkscape="http://www.inkscape.org/namespaces/inkscape"
   width="97.642509"
   height="97.642509"
   viewBox="0 0 25.834581 25.834582"
   version="1.1"
   id="svg8"
   inkscape:version="0.92.2 (5c3e80d, 2017-08-06)"
   sodipodi:docname="dollarsign.svg">
  <defs
     id="defs2" />
  <sodipodi:namedview
     id="base"
     pagecolor="#ffffff"
     bordercolor="#666666"
     borderopacity="1.0"
     inkscape:pageopacity="0.0"
     inkscape:pageshadow="2"
     inkscape:zoom="7.919596"
     inkscape:cx="-15.070244"
     inkscape:cy="35.240595"
     inkscape:document-units="mm"
     inkscape:current-layer="g846"
     showgrid="false"
     units="px"
     inkscape:window-width="2560"
     inkscape:window-height="1361"
     inkscape:window-x="-9"
     inkscape:window-y="-9"
     inkscape:window-maximized="1"
     fit-margin-top="0"
     fit-margin-left="0"
     fit-margin-right="0"
     fit-margin-bottom="0" />
  <metadata
     id="metadata5">
    <rdf:RDF>
      <cc:Work
         rdf:about="">
        <dc:format>image/svg+xml</dc:format>
        <dc:type
           rdf:resource="http://purl.org/dc/dcmitype/StillImage" />
        <dc:title />
      </cc:Work>
    </rdf:RDF>
  </metadata>
  <g
     inkscape:groupmode="layer"
     id="layer2"
     inkscape:label="new"
     transform="translate(-4.3318721,-270.92255)">
    <text
       xml:space="preserve"
       style="font-style:normal;font-variant:normal;font-weight:normal;font-stretch:normal;font-size:10.58333302px;line-height:1px;font-family:arial;-inkscape-font-specification:arial;letter-spacing:0px;word-spacing:0px;fill:#000000;fill-opacity:1;stroke:none;stroke-width:0.26458332"
       x="-18.668135"
       y="276.44531"
       id="text844"><tspan
         sodipodi:role="line"
         id="tspan842"
         x="-18.668135"
         y="279.86371"
         style="font-style:normal;font-variant:normal;font-weight:normal;font-stretch:normal;font-family:arial;-inkscape-font-specification:arial;stroke-width:0.26458332" /></text>
    <g
       id="g857">
      <circle
         style="opacity:1;vector-effect:none;fill:#feb800;fill-opacity:1;stroke:#fecc00;stroke-width:1.60149825;stroke-linecap:round;stroke-linejoin:round;stroke-miterlimit:4;stroke-dasharray:none;stroke-dashoffset:0;stroke-opacity:1;paint-order:stroke fill markers"
         id="path869"
         cx="17.249163"
         cy="283.83984"
         r="9.3102112" />
      <g
         id="g874"
         transform="matrix(0.41625812,0,0,0.41625812,10.069059,165.6892)"
         style="fill:#c57b00;fill-opacity:1">
        <g
           transform="translate(3.7686883,-5.1236113e-6)"
           id="text848"
           style="font-style:normal;font-variant:normal;font-weight:normal;font-stretch:normal;font-size:39.43637466px;line-height:3.72627163px;font-family:'courier new';-inkscape-font-specification:'courier new';letter-spacing:0px;word-spacing:0px;fill:#c57b00;fill-opacity:1;stroke:none;stroke-width:0.98590928"
           aria-label="s">
          <path
             inkscape:connector-curvature="0"
             id="path859"
             style="font-style:normal;font-variant:normal;font-weight:normal;font-stretch:normal;font-family:arial;-inkscape-font-specification:arial;fill:#c57b00;fill-opacity:1;stroke-width:0.98590928"
             d="m 4.9885597,287.96065 3.4275755,-0.53917 q 0.2888406,2.0604 1.5982518,3.158 1.328667,1.09759 3.69716,1.09759 2.387749,0 3.543112,-0.9628 1.155362,-0.98206 1.155362,-2.29147 0,-1.17462 -1.02057,-1.84858 -0.712474,-0.46215 -3.543112,-1.17462 -3.812696,-0.9628 -5.2954115,-1.65602 -1.4634592,-0.71247 -2.2337009,-1.94486 -0.7509857,-1.25164 -0.7509857,-2.75361 0,-1.36718 0.6161934,-2.52255 0.6354494,-1.17461 1.7137878,-1.94486 0.8087537,-0.59693 2.1951889,-1.00131 1.405691,-0.42363 3.003942,-0.42363 2.407006,0 4.217074,0.69321 1.829324,0.69322 2.695846,1.8871 0.866522,1.17462 1.193874,3.15799 l -3.389063,0.46214 q -0.231073,-1.57899 -1.347923,-2.46477 -1.097595,-0.88578 -3.119479,-0.88578 -2.387749,0 -3.4083194,0.7895 -1.0205703,0.7895 -1.0205703,1.84858 0,0.67396 0.4236329,1.21313 0.423633,0.55843 1.3286668,0.92429 0.519913,0.19256 3.061711,0.88578 3.677904,0.98206 5.122107,1.61751 1.463459,0.61619 2.291469,1.81006 0.82801,1.19388 0.82801,2.96543 0,1.73305 -1.02057,3.27353 -1.001314,1.52123 -2.907663,2.36849 -1.906348,0.82801 -4.313353,0.82801 -3.9860009,0 -6.0849095,-1.65602 -2.0796526,-1.65601 -2.6573338,-4.91029 z" />
        </g>
      </g>
      <g
         id="g846"
         transform="translate(-0.23862043)">
        <rect
           y="278.64175"
           x="16.474243"
           height="10.20715"
           width="0.83871913"
           id="rect852"
           style="opacity:1;vector-effect:none;fill:#c57b00;fill-opacity:1;stroke:none;stroke-width:0.52736562;stroke-linecap:round;stroke-linejoin:round;stroke-miterlimit:4;stroke-dasharray:none;stroke-dashoffset:0;stroke-opacity:1;paint-order:stroke fill markers" />
        <rect
           y="278.64178"
           x="17.662603"
           height="10.207151"
           width="0.83871919"
           id="rect852-0"
           style="opacity:1;vector-effect:none;fill:#c57b00;fill-opacity:1;stroke:none;stroke-width:0.52736562;stroke-linecap:round;stroke-linejoin:round;stroke-miterlimit:4;stroke-dasharray:none;stroke-dashoffset:0;stroke-opacity:1;paint-order:stroke fill markers" />
      </g>
    </g>
  </g>
</svg>
