<?xml version="1.0" encoding="UTF-8" standalone="no"?>
<!-- Created with Inkscape (http://www.inkscape.org/) -->

<svg
   xmlns:dc="http://purl.org/dc/elements/1.1/"
   xmlns:cc="http://creativecommons.org/ns#"
   xmlns:rdf="http://www.w3.org/1999/02/22-rdf-syntax-ns#"
   xmlns:svg="http://www.w3.org/2000/svg"
   xmlns="http://www.w3.org/2000/svg"
   xmlns:sodipodi="http://sodipodi.sourceforge.net/DTD/sodipodi-0.dtd"
   xmlns:inkscape="http://www.inkscape.org/namespaces/inkscape"
   width="95.405617"
   height="95.405617"
   viewBox="0 0 25.242735 25.242737"
   version="1.1"
   id="svg8"
   inkscape:version="0.92.2 (5c3e80d, 2017-08-06)"
   sodipodi:docname="healthcare.svg">
  <defs
     id="defs2" />
  <sodipodi:namedview
     id="base"
     pagecolor="#ffffff"
     bordercolor="#666666"
     borderopacity="1.0"
     inkscape:pageopacity="0.0"
     inkscape:pageshadow="2"
     inkscape:zoom="5.6568542"
     inkscape:cx="35.967171"
     inkscape:cy="63.019648"
     inkscape:document-units="mm"
     inkscape:current-layer="g1013"
     showgrid="false"
     units="px"
     inkscape:window-width="2560"
     inkscape:window-height="1361"
     inkscape:window-x="-9"
     inkscape:window-y="-9"
     inkscape:window-maximized="1"
     inkscape:pagecheckerboard="false"
     fit-margin-top="0"
     fit-margin-left="0"
     fit-margin-right="0"
     fit-margin-bottom="0" />
  <metadata
     id="metadata5">
    <rdf:RDF>
      <cc:Work
         rdf:about="">
        <dc:format>image/svg+xml</dc:format>
        <dc:type
           rdf:resource="http://purl.org/dc/dcmitype/StillImage" />
        <dc:title></dc:title>
      </cc:Work>
    </rdf:RDF>
  </metadata>
  <g
     inkscape:label="Layer 1"
     inkscape:groupmode="layer"
     id="layer1"
     transform="translate(-0.72827116,-269.77284)">
    <g
       id="g864"
       transform="translate(0.1670432,-2.7395126)">
      <g
         id="g1013">
        <g
           id="g1042"
           transform="translate(0.12047242)">
          <path
             style="fill:#0592ff;fill-opacity:1;stroke-width:0.02306954"
             d="m 12.141699,293.58127 -0.0777,-0.049 c -0.0428,-0.027 -0.13275,-0.0775 -0.19999,-0.11225 -0.14032,-0.0726 -0.29395,-0.16669 -0.40811,-0.24994 -0.0435,-0.0317 -0.11678,-0.0836 -0.16285,-0.11535 -0.42356,-0.29161 -0.89288,-0.78866 -1.07823,-1.14194 -0.0886,-0.16884 -0.17789,-0.3733 -0.17823,-0.40805 -1.6e-4,-0.0166 -0.0209,-0.0961 -0.0461,-0.17651 -0.065,-0.20748 -0.0667,-0.83206 -0.003,-1.03307 0.0237,-0.0746 0.0502,-0.16801 0.0588,-0.20756 0.0141,-0.065 0.0445,-0.12761 0.18384,-0.37977 0.0669,-0.121 0.32184,-0.41849 0.49395,-0.57634 0.17032,-0.15621 0.50048,-0.41328 0.81199,-0.63224 0.0444,-0.0312 0.12523,-0.0883 0.17961,-0.1268 0.0544,-0.0385 0.10663,-0.07 0.11612,-0.07 0.01,0 0.0705,-0.0337 0.1355,-0.075 0.065,-0.0412 0.13735,-0.087 0.16071,-0.10163 0.0409,-0.0257 0.0408,-0.028 -0.004,-0.0648 -0.0254,-0.021 -0.0877,-0.0588 -0.13842,-0.0842 -0.0507,-0.0253 -0.13899,-0.0766 -0.19609,-0.11393 -0.0571,-0.0374 -0.13496,-0.0836 -0.17302,-0.1028 -0.0381,-0.0192 -0.0952,-0.0542 -0.12688,-0.0778 -0.0317,-0.0236 -0.11478,-0.0807 -0.18456,-0.12685 -0.2202,-0.14575 -0.23703,-0.15835 -0.48827,-0.36568 -0.13531,-0.11166 -0.34059,-0.30294 -0.45617,-0.42506 -0.28656,-0.3028 -0.6160102,-0.80556 -0.6606502,-1.0082 -0.008,-0.0362 -0.0332,-0.10889 -0.056,-0.16149 -0.0442,-0.10178 -0.0922,-0.51533 -0.0922,-0.79389 0,-0.39714 0.0797,-0.82095 0.20703,-1.10117 0.1692399,-0.37241 0.1911899,-0.40821 0.4294202,-0.70045 0.16241,-0.19923 0.45631,-0.46426 0.60749,-0.54782 0.0434,-0.024 0.13165,-0.0726 0.19609,-0.10807 0.25751,-0.14163 0.57341,-0.22048 0.89219,-0.22271 0.25142,-0.002 0.25157,-0.001 0.25157,0.42958 0,0.30426 -0.005,0.35099 -0.0415,0.38399 -0.0489,0.0443 -0.22016,0.10799 -0.2902,0.10799 -0.027,0 -0.12172,0.0362 -0.21049,0.0804 -0.44175,0.22013 -0.78003,0.6488 -0.9014,1.14226 -0.0172,0.0698 -0.0481,0.19436 -0.0688,0.27683 -0.12978,0.5179 0.13618,1.21662 0.65073,1.70957 0.20066,0.19224 0.57818,0.48558 0.80399,0.62473 0.0634,0.0391 0.1413,0.0888 0.17302,0.11047 0.0942,0.0643 0.40571,0.2313 0.43156,0.2313 0.0164,0 0.0292,-1.66568 0.0406,-5.28869 0.009,-2.90878 0.0243,-5.29673 0.0335,-5.30654 0.009,-0.01 0.20286,-0.015 0.43031,-0.0115 l 0.41355,0.006 0.006,5.30022 c 0.004,4.00883 0.0123,5.30023 0.0326,5.30023 0.0281,0 0.33518,-0.16348 0.43448,-0.2313 0.0317,-0.0217 0.10958,-0.0714 0.17302,-0.11047 0.12636,-0.0779 0.3053,-0.20795 0.52614,-0.3825 0.46257,-0.3656 0.73585,-0.73993 0.89439,-1.22511 0.0703,-0.21516 0.0849,-0.52446 0.0342,-0.72669 -0.0207,-0.0825 -0.0516,-0.20705 -0.0688,-0.27683 -0.12137,-0.49346 -0.45965,-0.92213 -0.9014,-1.14226 -0.0888,-0.0442 -0.18349,-0.0804 -0.21049,-0.0804 -0.07,0 -0.24129,-0.0637 -0.29021,-0.10799 -0.0365,-0.033 -0.0415,-0.0799 -0.0415,-0.388 0,-0.42803 -3.7e-4,-0.42739 0.25559,-0.42557 0.31486,0.002 0.63186,0.0817 0.88817,0.22271 0.0644,0.0354 0.15269,0.0841 0.19609,0.10807 0.15119,0.0836 0.44509,0.34859 0.6075,0.54782 0.23823,0.29224 0.26018,0.32804 0.42942,0.70045 0.12734,0.28022 0.20702,0.70403 0.20702,1.10117 0,0.27856 -0.048,0.69211 -0.0922,0.79389 -0.0228,0.0526 -0.048,0.12527 -0.056,0.16149 -0.0446,0.20264 -0.37409,0.7054 -0.66065,1.0082 -0.11557,0.12212 -0.32085,0.3134 -0.45617,0.42506 -0.25124,0.20733 -0.26806,0.21993 -0.48826,0.36568 -0.0698,0.0462 -0.15284,0.10327 -0.18456,0.12685 -0.0317,0.0236 -0.0888,0.0586 -0.12688,0.0778 -0.0381,0.0192 -0.11593,0.0654 -0.17303,0.1028 -0.0571,0.0374 -0.14533,0.0886 -0.19609,0.11393 -0.0508,0.0253 -0.11304,0.0632 -0.13841,0.0842 -0.0445,0.0367 -0.0446,0.0391 -0.004,0.0648 0.0234,0.0147 0.0957,0.0604 0.1607,0.10163 0.065,0.0412 0.12601,0.075 0.1355,0.075 0.01,0 0.0618,0.0315 0.11613,0.07 0.0544,0.0385 0.13519,0.0956 0.1796,0.1268 0.31152,0.21896 0.64167,0.47603 0.81199,0.63224 0.17212,0.15785 0.42707,0.45534 0.49396,0.57634 0.13937,0.25216 0.1697,0.31481 0.18383,0.37977 0.009,0.0395 0.0351,0.13295 0.0588,0.20756 0.064,0.20101 0.0624,0.82559 -0.003,1.03307 -0.0252,0.0804 -0.046,0.15986 -0.0461,0.17651 -3.4e-4,0.0348 -0.0896,0.23921 -0.17822,0.40805 -0.18535,0.35328 -0.65467,0.85033 -1.07823,1.14194 -0.0461,0.0317 -0.11936,0.0836 -0.16286,0.11535 -0.11415,0.0833 -0.26778,0.17734 -0.4081,0.24994 -0.0672,0.0348 -0.15724,0.0853 -0.2,0.11225 l -0.0777,0.049 m 0,0 0.10081,0.0621 c 0.31776,0.19589 0.51951,0.38865 0.7093,0.67769 0.27842,0.42401 0.38371,0.80387 0.36516,1.31742 -0.0138,0.38242 -0.0655,0.59316 -0.22358,0.91125 -0.27118,0.54574 -0.81011,0.98741 -1.39602,1.14411 -0.26623,0.0712 -0.77995,0.0827 -1.04967,0.0235 l 0.0012,2.7e-4 c -0.79427,-0.17434 -1.44715,-0.79508 -1.66481,-1.58285 -0.0434,-0.15698 -0.051,-0.24316 -0.051,-0.57674 0,-0.32949 0.008,-0.42057 0.0492,-0.56978 0.10363,-0.37393 0.31924,-0.7459 0.58554,-1.01016 0.14927,-0.14814 0.22507,-0.2068 0.43209,-0.33443 l 0.10081,-0.0621 m 0.56807,-2.078 c -0.002,-0.73909 -0.01,-1.64178 -0.0173,-2.00598 l -0.0141,-0.66218 -0.0923,0.0452 c -0.0507,0.0249 -0.12943,0.0685 -0.17485,0.097 -0.0454,0.0285 -0.11734,0.0725 -0.15984,0.0979 -0.0425,0.0254 -0.12036,0.0877 -0.17303,0.13842 -0.0527,0.0507 -0.14069,0.11823 -0.1956,0.14995 -0.1515,0.0875 -0.3284,0.24708 -0.47741,0.43065 -0.14559,0.17934 -0.26111,0.35543 -0.26111,0.398 0,0.0147 -0.0226,0.0705 -0.0502,0.12389 -0.1151,0.22262 -0.11416,0.89196 0.002,1.11882 0.0267,0.0524 0.0486,0.11052 0.0486,0.12909 0,0.0186 0.0238,0.0631 0.0528,0.099 0.029,0.0359 0.0645,0.0912 0.0787,0.12289 0.0433,0.0961 0.22908,0.28979 0.36409,0.3794 0.07,0.0465 0.18702,0.13954 0.25994,0.20676 0.0729,0.0672 0.21364,0.16786 0.31271,0.22365 0.38042,0.21424 0.44365,0.24769 0.4716,0.24951 0.0228,0.001 0.0282,-0.27966 0.0256,-1.34192 z m 1.09192,1.26694 c 0.41977,-0.23365 0.50385,-0.28729 0.62414,-0.39818 0.0729,-0.0672 0.1899,-0.16026 0.25995,-0.20676 0.13501,-0.0896 0.32084,-0.28326 0.36409,-0.3794 0.0143,-0.0317 0.0497,-0.087 0.0787,-0.12289 0.029,-0.0359 0.0528,-0.0804 0.0528,-0.099 0,-0.0186 0.0219,-0.0767 0.0486,-0.12909 0.11573,-0.22686 0.11668,-0.8962 0.002,-1.11882 -0.0276,-0.0534 -0.0502,-0.10917 -0.0502,-0.12389 0,-0.0426 -0.11553,-0.21866 -0.26111,-0.398 -0.14901,-0.18357 -0.32592,-0.34315 -0.47741,-0.43065 -0.0549,-0.0317 -0.14294,-0.0992 -0.1956,-0.14995 -0.0527,-0.0508 -0.13053,-0.11305 -0.17303,-0.13842 -0.0425,-0.0254 -0.11443,-0.0694 -0.15985,-0.0979 -0.0454,-0.0285 -0.12409,-0.0721 -0.17485,-0.097 l -0.0923,-0.0452 -0.0141,0.66218 c -0.008,0.3642 -0.0155,1.26689 -0.0173,2.00598 -0.002,1.06226 0.003,1.3434 0.0256,1.34192 0.0159,-0.001 0.0879,-0.0348 0.16016,-0.075 z M 9.3794386,281.47256 c -0.30847,-0.009 -0.65073,-0.0323 -0.77283,-0.0524 -0.12054,-0.0198 -0.33855,-0.0428 -0.48446,-0.0512 -0.14592,-0.008 -0.35873,-0.0341 -0.47293,-0.0573 -0.11419,-0.0232 -0.28029,-0.049 -0.36911,-0.0573 -0.08882,-0.008 -0.239348,-0.0343 -0.33451,-0.0579 -0.09516,-0.0235 -0.229533,-0.0499 -0.298602,-0.0585 -0.06907,-0.009 -0.182294,-0.0353 -0.25161,-0.0592 -0.06932,-0.0238 -0.153921,-0.0434 -0.188013,-0.0434 -0.03409,0 -0.123304,-0.0212 -0.198247,-0.047 -0.07494,-0.0259 -0.198549,-0.0612 -0.274679,-0.0785 -0.07613,-0.0173 -0.190324,-0.0491 -0.253765,-0.0707 -0.06344,-0.0216 -0.146491,-0.0498 -0.184556,-0.0626 -0.03807,-0.0128 -0.136687,-0.049 -0.219161,-0.0804 -0.08247,-0.0314 -0.207049,-0.0761 -0.276834,-0.0993 -0.06978,-0.0232 -0.178789,-0.0645 -0.24223,-0.0917 -0.06344,-0.0272 -0.156325,-0.0669 -0.206409,-0.0884 -0.159278,-0.0682 -0.877001,-0.43229 -0.947999,-0.48095 -0.03755,-0.0257 -0.109803,-0.0727 -0.160556,-0.10429 -0.484303,-0.30178 -0.719957,-0.47672 -1.102367,-0.81837 -0.400102,-0.35745 -0.69251,-0.71381 -1.072275,-1.3068 -0.13846798,-0.21621 -0.42068094,-0.85427 -0.42068094,-0.95112 0,-0.0199 -0.01425,-0.0643 -0.03167,-0.0985 -0.01742,-0.0343 -0.03884,-0.12132 -0.04761,-0.19347 -0.01364,-0.11216 -0.0095,-0.13765 0.0288,-0.17592 0.04248,-0.0425 0.09499,-0.0454 1.03383794,-0.0575 0.747989,-0.01 1.03394,-0.0213 1.173101,-0.048 0.101208,-0.0194 0.303643,-0.0468 0.449856,-0.0609 0.146212,-0.0141 0.317747,-0.04 0.381188,-0.0575 0.06344,-0.0175 0.167254,-0.0384 0.230696,-0.0465 0.198623,-0.0253 0.869971,-0.21139 1.044513,-0.28956 0.05426,-0.0243 0.109622,-0.0442 0.123016,-0.0442 0.08683,0 0.912673,-0.41267 1.220168,-0.60971 0.333977,-0.21401 0.434147,-0.27873 0.485501,-0.31366 0.141912,-0.0965 0.510505,-0.26915 0.737185,-0.34522 0.13121,-0.044 0.24466,-0.0721 0.65748,-0.16256 0.0508,-0.0111 0.20647,-0.0206 0.34604,-0.0211 0.21338,-7.3e-4 0.29048,0.01 0.48446,0.0661 0.28124,0.0816 0.4775,0.1736 0.69777,0.32692 0.17564,0.12226 0.3862504,0.34018 0.4780704,0.49469 0.15737,0.26479 0.22215,0.39019 0.24146,0.46745 0.0118,0.047 0.0397,0.13224 0.062,0.18934 0.0352,0.09 0.0425,0.22078 0.0549,0.98045 0.0136,0.83458 0.0168,0.88254 0.0653,0.99935 0.093,0.2237 0.20938,0.36961 0.35472,0.44452 0.076,0.0392 0.13796,0.0441 0.5543,0.0441 0.38688,0 0.47766,0.006 0.51998,0.0359 l 0.0513,0.0359 v 0.0608 1.48354 c 0,1.51359 -9.2e-4,1.54527 -0.0461,1.59049 -0.0449,0.0448 -0.0742,0.046 -1.05543,0.0422 -0.55511,-0.002 -1.2584404,-0.0113 -1.5629604,-0.0203 z m 4.9499604,-0.0434 c -0.0472,-0.0472 -0.0477,-0.0621 -0.0477,-1.55619 0,-1.40527 0.003,-1.51193 0.0406,-1.55862 0.0385,-0.0475 0.0617,-0.0504 0.44409,-0.0564 0.36842,-0.006 0.41254,-0.0109 0.50732,-0.0593 0.24618,-0.12573 0.41782,-0.32251 0.50407,-0.57793 0.046,-0.13631 0.0496,-0.19336 0.05,-0.7941 5.9e-4,-0.93211 0.0233,-1.08864 0.21119,-1.45467 0.15587,-0.30368 0.27982,-0.45666 0.54309,-0.6703 0.24834,-0.20151 0.53335,-0.34033 0.77944,-0.37964 0.0761,-0.0121 0.19032,-0.033 0.25376,-0.0462 0.0873,-0.0183 0.17141,-0.0159 0.34605,0.01 0.12688,0.0188 0.28758,0.0411 0.35711,0.0498 0.0695,0.009 0.16815,0.0308 0.21916,0.0493 0.051,0.0185 0.13946,0.0473 0.19656,0.0639 0.23915,0.0698 0.64373,0.27668 0.91703,0.46891 0.0666,0.0469 0.16429,0.11115 0.21702,0.14287 0.0527,0.0317 0.13317,0.0825 0.17876,0.11286 0.12486,0.0831 0.88127,0.45916 1.02139,0.50775 0.43683,0.15151 0.62145,0.2099 0.66369,0.2099 0.0265,0 0.12244,0.026 0.21323,0.0577 0.0908,0.0317 0.19794,0.0577 0.2381,0.0577 0.0402,0 0.15515,0.0213 0.25551,0.0473 0.10037,0.026 0.29668,0.0572 0.43625,0.0693 0.13957,0.0121 0.33681,0.0383 0.43832,0.0582 0.14256,0.028 0.41028,0.039 1.17655,0.0487 0.54559,0.007 1.01015,0.022 1.03236,0.0337 0.056,0.0295 0.0537,0.22629 -0.004,0.37677 -0.0246,0.0637 -0.06,0.16251 -0.0788,0.21961 -0.10571,0.32134 -0.18791,0.49998 -0.39276,0.85357 -0.40179,0.69351 -1.1263,1.43644 -1.883,1.93086 -0.51905,0.33914 -0.98196,0.59176 -1.40724,0.76797 -0.3301,0.13677 -0.38153,0.15719 -0.55367,0.21984 -0.0952,0.0346 -0.22837,0.084 -0.29601,0.10971 -0.0676,0.0257 -0.16108,0.0547 -0.20763,0.0643 -0.0466,0.01 -0.14692,0.038 -0.22305,0.0631 -0.33864,0.11135 -0.53483,0.16702 -0.58828,0.16693 -0.0317,-5e-5 -0.12216,0.0201 -0.20099,0.0448 -0.0788,0.0247 -0.19821,0.0515 -0.2653,0.0595 -0.0671,0.008 -0.19465,0.0337 -0.28347,0.0571 -0.0888,0.0234 -0.24453,0.0493 -0.34604,0.0576 -0.10151,0.008 -0.24456,0.0301 -0.3179,0.0485 -0.0733,0.0183 -0.32249,0.0484 -0.55367,0.0669 -0.23118,0.0185 -0.47742,0.0454 -0.54721,0.0598 -0.0832,0.0172 -0.62017,0.0297 -1.56141,0.0364 -1.42606,0.0101 -1.4348,0.01 -1.48221,-0.0375 z"
             id="path878"
             inkscape:connector-curvature="0"
             sodipodi:nodetypes="ccccccccccccccsccccccccccccscscccscsccccccscccccscccccccscscccccscccccccsccccscccccccccccccccccccccccscccccccccscccsccssccccccccccccsccsccccccccccccccccccccscsccccccccccscccccscccscccccccccccccscccscccccscccccccccccccccccscscsccccccccccccccccccscccc" />
          <circle
             style="opacity:1;vector-effect:none;fill:none;fill-opacity:1;stroke:#0592ff;stroke-width:1;stroke-linecap:round;stroke-linejoin:round;stroke-miterlimit:4;stroke-dasharray:none;stroke-dashoffset:0;stroke-opacity:1;paint-order:stroke fill markers"
             id="path1006"
             cx="13.168429"
             cy="274.93335"
             r="1.9209996" />
          <circle
             style="opacity:1;vector-effect:none;fill:#ffffff;fill-opacity:1;stroke:none;stroke-width:1.3907696;stroke-linecap:round;stroke-linejoin:round;stroke-miterlimit:4;stroke-dasharray:none;stroke-dashoffset:0;stroke-opacity:1;paint-order:stroke fill markers"
             id="path1008"
             cx="13.18716"
             cy="295.57974"
             r="1.2484846" />
        </g>
      </g>
    </g>
  </g>
</svg>
