<?xml version="1.0" encoding="UTF-8" standalone="no"?>
<!-- Created with Inkscape (http://www.inkscape.org/) -->

<svg
   xmlns:dc="http://purl.org/dc/elements/1.1/"
   xmlns:cc="http://creativecommons.org/ns#"
   xmlns:rdf="http://www.w3.org/1999/02/22-rdf-syntax-ns#"
   xmlns:svg="http://www.w3.org/2000/svg"
   xmlns="http://www.w3.org/2000/svg"
   xmlns:xlink="http://www.w3.org/1999/xlink"
   xmlns:sodipodi="http://sodipodi.sourceforge.net/DTD/sodipodi-0.dtd"
   xmlns:inkscape="http://www.inkscape.org/namespaces/inkscape"
   width="26.53499mm"
   height="26.53499mm"
   viewBox="0 0 26.53499 26.53499"
   version="1.1"
   id="svg1637"
   inkscape:version="0.92.2 (5c3e80d, 2017-08-06)"
   sodipodi:docname="smartphone.svg">
  <defs
     id="defs1631">
    <clipPath
       id="b">
      <use
         overflow="visible"
         xlink:href="#a"
         id="use818"
         style="overflow:visible"
         x="0"
         y="0"
         width="100%"
         height="100%" />
    </clipPath>
    <linearGradient
       inkscape:collect="always"
       xlink:href="#linearGradient1040"
       id="linearGradient1069"
       x1="-42.586964"
       y1="56.12133"
       x2="-18.02223"
       y2="72.536308"
       gradientUnits="userSpaceOnUse"
       gradientTransform="matrix(0.26458333,0,0,0.26458333,477.49118,61.425761)" />
    <linearGradient
       id="linearGradient1040"
       inkscape:collect="always">
      <stop
         id="stop1036"
         offset="0"
         style="stop-color:#ffffff;stop-opacity:0.20975609" />
      <stop
         id="stop1038"
         offset="1"
         style="stop-color:#393939;stop-opacity:0" />
    </linearGradient>
  </defs>
  <sodipodi:namedview
     id="base"
     pagecolor="#ffffff"
     bordercolor="#666666"
     borderopacity="1.0"
     inkscape:pageopacity="0.0"
     inkscape:pageshadow="2"
     inkscape:zoom="23.711304"
     inkscape:cx="21.077668"
     inkscape:cy="78.537081"
     inkscape:document-units="mm"
     inkscape:current-layer="g1747"
     showgrid="false"
     fit-margin-top="0"
     fit-margin-left="0"
     fit-margin-right="0"
     fit-margin-bottom="0"
     inkscape:window-width="2560"
     inkscape:window-height="1361"
     inkscape:window-x="-9"
     inkscape:window-y="-9"
     inkscape:window-maximized="1" />
  <metadata
     id="metadata1634">
    <rdf:RDF>
      <cc:Work
         rdf:about="">
        <dc:format>image/svg+xml</dc:format>
        <dc:type
           rdf:resource="http://purl.org/dc/dcmitype/StillImage" />
        <dc:title />
      </cc:Work>
    </rdf:RDF>
  </metadata>
  <g
     inkscape:label="Layer 1"
     inkscape:groupmode="layer"
     id="layer1"
     transform="translate(-466.03183,-76.601553)">
    <g
       id="g1423"
       transform="translate(6.8290932)">
      <g
         id="g1747"
         transform="translate(3.483551,12.360114)">
        <rect
           rx="0.131"
           ry="0.131"
           y="75.235611"
           x="474.70187"
           height="4.1278558"
           width="0.72320926"
           id="rect877"
           style="display:inline;opacity:1;vector-effect:none;fill:#464646;fill-opacity:1;stroke:none;stroke-width:1.01709402;stroke-linecap:round;stroke-linejoin:miter;stroke-miterlimit:4;stroke-dasharray:none;stroke-dashoffset:0;stroke-opacity:1;paint-order:stroke fill markers" />
        <rect
           rx="0.13140869"
           ry="0.13140869"
           y="71.768845"
           x="474.70187"
           height="2.1028697"
           width="0.72320926"
           id="rect877-6"
           style="display:inline;opacity:1;vector-effect:none;fill:#464646;fill-opacity:1;stroke:none;stroke-width:0.72594714;stroke-linecap:round;stroke-linejoin:miter;stroke-miterlimit:4;stroke-dasharray:none;stroke-dashoffset:0;stroke-opacity:1;paint-order:stroke fill markers" />
        <rect
           ry="1.0983299"
           y="64.24144"
           x="462.54828"
           height="26.534988"
           width="12.713582"
           id="rect817"
           style="display:inline;opacity:1;vector-effect:none;fill:#000000;fill-opacity:1;stroke:none;stroke-width:1.17704606;stroke-linecap:round;stroke-linejoin:round;stroke-miterlimit:4;stroke-dasharray:none;stroke-dashoffset:0;stroke-opacity:1;paint-order:stroke fill markers" />
        <rect
           ry="0.81766093"
           y="65.508926"
           x="463.03094"
           height="24"
           width="11.74824"
           id="rect819"
           style="display:inline;opacity:1;vector-effect:none;fill:#1a1a1a;fill-opacity:1;stroke:none;stroke-width:0.97592658;stroke-linecap:round;stroke-linejoin:round;stroke-miterlimit:4;stroke-dasharray:none;stroke-dashoffset:0;stroke-opacity:1;paint-order:stroke fill markers" />
        <rect
           ry="0.083447225"
           y="64.809982"
           x="467.50317"
           height="0.16689445"
           width="2.803827"
           id="rect867"
           style="display:inline;opacity:1;vector-effect:none;fill:#4a4a4a;fill-opacity:1;stroke:none;stroke-width:0.92356825;stroke-linecap:round;stroke-linejoin:miter;stroke-miterlimit:4;stroke-dasharray:none;stroke-dashoffset:0;stroke-opacity:1;paint-order:stroke fill markers" />
        <circle
           r="0.25175935"
           cy="64.893417"
           cx="464.69205"
           id="path871"
           style="display:inline;opacity:1;vector-effect:none;fill:#0e0e0e;fill-opacity:1;stroke:none;stroke-width:1.14599991;stroke-linecap:round;stroke-linejoin:miter;stroke-miterlimit:4;stroke-dasharray:none;stroke-dashoffset:0;stroke-opacity:1;paint-order:stroke fill markers" />
        <g
           aria-label="10:10"
           style="font-style:normal;font-variant:normal;font-weight:normal;font-stretch:normal;font-size:2.00399852px;line-height:0.1893542px;font-family:'courier new';-inkscape-font-specification:'courier new';letter-spacing:0px;word-spacing:0px;display:inline;fill:#ffffff;fill-opacity:1;stroke:none;stroke-width:0.05009996"
           id="text896">
          <path
             d="m 467.08212,69.47551 h -0.17614 v -1.122357 q -0.0636,0.06067 -0.16732,0.121336 -0.10275,0.06067 -0.18494,0.091 v -0.170262 q 0.14775,-0.06947 0.25833,-0.168304 0.11057,-0.09883 0.15656,-0.191789 h 0.11351 z"
             style="font-style:normal;font-variant:normal;font-weight:normal;font-stretch:normal;font-family:arial;-inkscape-font-specification:arial;fill:#ffffff;fill-opacity:1;stroke-width:0.05009996"
             id="path1495" />
          <path
             d="m 467.53419,68.768043 q 0,-0.254414 0.0519,-0.409019 0.0528,-0.155584 0.15559,-0.239736 0.10372,-0.08415 0.26028,-0.08415 0.11547,0 0.20255,0.04697 0.0871,0.04599 0.14385,0.134057 0.0568,0.08709 0.089,0.213316 0.0323,0.12525 0.0323,0.338566 0,0.252457 -0.0519,0.408041 -0.0519,0.154605 -0.15558,0.239736 -0.10275,0.08415 -0.26029,0.08415 -0.20744,0 -0.32584,-0.148735 -0.14189,-0.179068 -0.14189,-0.583195 z m 0.18103,0 q 0,0.353244 0.0822,0.470666 0.0832,0.116443 0.20451,0.116443 0.12134,0 0.20353,-0.117421 0.0832,-0.117422 0.0832,-0.469688 0,-0.354222 -0.0832,-0.470665 -0.0822,-0.116444 -0.20549,-0.116444 -0.12133,0 -0.19374,0.102744 -0.091,0.131121 -0.091,0.484365 z"
             style="font-style:normal;font-variant:normal;font-weight:normal;font-stretch:normal;font-family:arial;-inkscape-font-specification:arial;fill:#ffffff;fill-opacity:1;stroke-width:0.05009996"
             id="path1497" />
          <path
             d="m 468.74755,68.636922 v -0.200595 h 0.2006 v 0.200595 z m 0,0.838588 v -0.200596 h 0.2006 v 0.200596 z"
             style="font-style:normal;font-variant:normal;font-weight:normal;font-stretch:normal;font-family:arial;-inkscape-font-specification:arial;fill:#ffffff;fill-opacity:1;stroke-width:0.05009996"
             id="path1499" />
          <path
             d="m 469.86893,69.47551 h -0.17614 v -1.122357 q -0.0636,0.06067 -0.16732,0.121336 -0.10275,0.06067 -0.18494,0.091 v -0.170262 q 0.14776,-0.06947 0.25833,-0.168304 0.11057,-0.09883 0.15656,-0.191789 h 0.11351 z"
             style="font-style:normal;font-variant:normal;font-weight:normal;font-stretch:normal;font-family:arial;-inkscape-font-specification:arial;fill:#ffffff;fill-opacity:1;stroke-width:0.05009996"
             id="path1501" />
          <path
             d="m 470.321,68.768043 q 0,-0.254414 0.0519,-0.409019 0.0528,-0.155584 0.15559,-0.239736 0.10372,-0.08415 0.26028,-0.08415 0.11547,0 0.20255,0.04697 0.0871,0.04599 0.14385,0.134057 0.0568,0.08709 0.089,0.213316 0.0323,0.12525 0.0323,0.338566 0,0.252457 -0.0519,0.408041 -0.0519,0.154605 -0.15558,0.239736 -0.10275,0.08415 -0.26029,0.08415 -0.20744,0 -0.32584,-0.148735 Q 470.321,69.17217 470.321,68.768043 Z m 0.18103,0 q 0,0.353244 0.0822,0.470666 0.0832,0.116443 0.20451,0.116443 0.12134,0 0.20353,-0.117421 0.0832,-0.117422 0.0832,-0.469688 0,-0.354222 -0.0832,-0.470665 -0.0822,-0.116444 -0.20549,-0.116444 -0.12133,0 -0.19374,0.102744 -0.091,0.131121 -0.091,0.484365 z"
             style="font-style:normal;font-variant:normal;font-weight:normal;font-stretch:normal;font-family:arial;-inkscape-font-specification:arial;fill:#ffffff;fill-opacity:1;stroke-width:0.05009996"
             id="path1503" />
        </g>
        <g
           aria-label="TUESDAY, MAY 1st"
           style="font-style:normal;font-variant:normal;font-weight:normal;font-stretch:normal;font-size:0.69902515px;line-height:0.06604963px;font-family:'courier new';-inkscape-font-specification:'courier new';letter-spacing:0px;word-spacing:0px;display:inline;fill:#b5b5b5;fill-opacity:1;stroke:none;stroke-width:0.01747563"
           id="text1486">
          <path
             d="m 466.10971,70.789597 v -0.441328 h -0.16486 v -0.05905 h 0.39662 v 0.05905 h -0.16555 v 0.441328 z"
             style="font-style:normal;font-variant:normal;font-weight:normal;font-stretch:normal;font-family:arial;-inkscape-font-specification:arial;fill:#b5b5b5;fill-opacity:1;stroke-width:0.01747563"
             id="path1506" />
          <path
             d="m 466.73808,70.28922 h 0.0662 v 0.289099 q 0,0.07543 -0.0171,0.119804 -0.0171,0.04437 -0.0618,0.07236 -0.0444,0.02765 -0.11673,0.02765 -0.0703,0 -0.11503,-0.02423 -0.0447,-0.02423 -0.0638,-0.06997 -0.0191,-0.04608 -0.0191,-0.125606 V 70.28922 h 0.0662 v 0.288758 q 0,0.06519 0.012,0.09625 0.0123,0.03072 0.0416,0.04744 0.0297,0.01672 0.0724,0.01672 0.073,0 0.1041,-0.03311 0.0311,-0.03311 0.0311,-0.127312 z"
             style="font-style:normal;font-variant:normal;font-weight:normal;font-stretch:normal;font-family:arial;-inkscape-font-specification:arial;fill:#b5b5b5;fill-opacity:1;stroke-width:0.01747563"
             id="path1508" />
          <path
             d="M 466.91625,70.789597 V 70.28922 h 0.3618 v 0.05905 h -0.29558 v 0.153253 h 0.27681 v 0.05871 h -0.27681 v 0.170319 h 0.30718 v 0.05905 z"
             style="font-style:normal;font-variant:normal;font-weight:normal;font-stretch:normal;font-family:arial;-inkscape-font-specification:arial;fill:#b5b5b5;fill-opacity:1;stroke-width:0.01747563"
             id="path1510" />
          <path
             d="m 467.35928,70.628834 0.0625,-0.0055 q 0.004,0.03755 0.0205,0.06178 0.0164,0.02389 0.0505,0.03891 0.0341,0.01468 0.0768,0.01468 0.0379,0 0.0669,-0.01126 0.029,-0.01126 0.043,-0.03072 0.0143,-0.0198 0.0143,-0.04301 0,-0.02355 -0.0136,-0.04096 -0.0137,-0.01775 -0.0451,-0.0297 -0.0201,-0.0078 -0.0891,-0.02423 -0.069,-0.01672 -0.0966,-0.0314 -0.0358,-0.01877 -0.0536,-0.04642 -0.0174,-0.02799 -0.0174,-0.06246 0,-0.03789 0.0215,-0.07065 0.0215,-0.03311 0.0628,-0.05017 0.0413,-0.01707 0.0918,-0.01707 0.0556,0 0.098,0.01809 0.0427,0.01775 0.0655,0.05256 0.0229,0.03481 0.0246,0.07885 l -0.0635,0.0048 q -0.005,-0.04744 -0.0348,-0.07168 -0.0294,-0.02423 -0.087,-0.02423 -0.0601,0 -0.0877,0.02219 -0.0273,0.02184 -0.0273,0.0529 0,0.02696 0.0195,0.04437 0.0191,0.01741 0.0997,0.03584 0.0809,0.01809 0.11093,0.03174 0.0437,0.02014 0.0645,0.0512 0.0208,0.03072 0.0208,0.07099 0,0.03993 -0.0229,0.07543 -0.0229,0.03516 -0.0659,0.05495 -0.0427,0.01946 -0.0962,0.01946 -0.0679,0 -0.114,-0.0198 -0.0457,-0.0198 -0.072,-0.05939 -0.0259,-0.03993 -0.0273,-0.09011 z"
             style="font-style:normal;font-variant:normal;font-weight:normal;font-stretch:normal;font-family:arial;-inkscape-font-specification:arial;fill:#b5b5b5;fill-opacity:1;stroke-width:0.01747563"
             id="path1512" />
          <path
             d="M 467.84874,70.789597 V 70.28922 h 0.17237 q 0.0584,0 0.0891,0.0072 0.043,0.0099 0.0734,0.03584 0.0396,0.03345 0.0591,0.08567 0.0198,0.05188 0.0198,0.11878 0,0.057 -0.0133,0.101031 -0.0133,0.04403 -0.0341,0.07304 -0.0208,0.02867 -0.0457,0.0454 -0.0246,0.01638 -0.0597,0.02492 -0.0348,0.0085 -0.0802,0.0085 z m 0.0662,-0.05905 h 0.10684 q 0.0495,0 0.0775,-0.0092 0.0283,-0.0092 0.0451,-0.02594 0.0236,-0.02355 0.0365,-0.06314 0.0133,-0.03993 0.0133,-0.09659 0,-0.0785 -0.0259,-0.120486 -0.0256,-0.04232 -0.0625,-0.05666 -0.0266,-0.01024 -0.0857,-0.01024 h -0.10513 z"
             style="font-style:normal;font-variant:normal;font-weight:normal;font-stretch:normal;font-family:arial;-inkscape-font-specification:arial;fill:#b5b5b5;fill-opacity:1;stroke-width:0.01747563"
             id="path1514" />
          <path
             d="m 468.29894,70.789597 0.19216,-0.500377 h 0.0713 l 0.20479,0.500377 h -0.0754 l -0.0584,-0.151547 h -0.20923 l -0.0549,0.151547 z m 0.14438,-0.205476 h 0.16964 l -0.0522,-0.138576 q -0.0239,-0.06314 -0.0355,-0.103761 -0.01,0.04813 -0.027,0.09557 z"
             style="font-style:normal;font-variant:normal;font-weight:normal;font-stretch:normal;font-family:arial;-inkscape-font-specification:arial;fill:#b5b5b5;fill-opacity:1;stroke-width:0.01747563"
             id="path1516" />
          <path
             d="m 468.9099,70.789597 v -0.211961 l -0.19284,-0.288416 h 0.0806 l 0.0986,0.150864 q 0.0273,0.04232 0.0509,0.08465 0.0225,-0.03925 0.0546,-0.0884 l 0.0969,-0.147109 h 0.0771 l -0.19967,0.288416 v 0.211961 z"
             style="font-style:normal;font-variant:normal;font-weight:normal;font-stretch:normal;font-family:arial;-inkscape-font-specification:arial;fill:#b5b5b5;fill-opacity:1;stroke-width:0.01747563"
             id="path1518" />
          <path
             d="m 469.15395,70.789597 v -0.06997 h 0.07 v 0.06997 q 0,0.03857 -0.0137,0.06212 -0.0137,0.02389 -0.0433,0.03686 l -0.0171,-0.02628 q 0.0195,-0.0085 0.0287,-0.02526 0.009,-0.01638 0.0102,-0.04744 z"
             style="font-style:normal;font-variant:normal;font-weight:normal;font-stretch:normal;font-family:arial;-inkscape-font-specification:arial;fill:#b5b5b5;fill-opacity:1;stroke-width:0.01747563"
             id="path1520" />
          <path
             d="M 469.53145,70.789597 V 70.28922 h 0.0997 l 0.11843,0.354291 q 0.0164,0.04949 0.0239,0.07407 0.009,-0.02731 0.0266,-0.08021 l 0.1198,-0.348147 h 0.0891 v 0.500377 h -0.0638 v -0.418801 l -0.1454,0.418801 H 469.74 l -0.14472,-0.425969 v 0.425969 z"
             style="font-style:normal;font-variant:normal;font-weight:normal;font-stretch:normal;font-family:arial;-inkscape-font-specification:arial;fill:#b5b5b5;fill-opacity:1;stroke-width:0.01747563"
             id="path1522" />
          <path
             d="m 470.06152,70.789597 0.19216,-0.500377 h 0.0713 l 0.20479,0.500377 h -0.0754 l -0.0584,-0.151547 h -0.20923 l -0.055,0.151547 z m 0.14438,-0.205476 h 0.16964 l -0.0522,-0.138576 q -0.0239,-0.06314 -0.0355,-0.103761 -0.01,0.04813 -0.027,0.09557 z"
             style="font-style:normal;font-variant:normal;font-weight:normal;font-stretch:normal;font-family:arial;-inkscape-font-specification:arial;fill:#b5b5b5;fill-opacity:1;stroke-width:0.01747563"
             id="path1524" />
          <path
             d="m 470.67249,70.789597 v -0.211961 l -0.19285,-0.288416 h 0.0805 l 0.0986,0.150864 q 0.0273,0.04232 0.0509,0.08465 0.0225,-0.03925 0.0546,-0.0884 l 0.0969,-0.147109 h 0.0771 l -0.19967,0.288416 v 0.211961 z"
             style="font-style:normal;font-variant:normal;font-weight:normal;font-stretch:normal;font-family:arial;-inkscape-font-specification:arial;fill:#b5b5b5;fill-opacity:1;stroke-width:0.01747563"
             id="path1526" />
          <path
             d="m 471.38653,70.789597 h -0.0614 v -0.391495 q -0.0222,0.02116 -0.0584,0.04232 -0.0358,0.02116 -0.0645,0.03174 v -0.05939 q 0.0515,-0.02423 0.0901,-0.05871 0.0386,-0.03447 0.0546,-0.0669 h 0.0396 z"
             style="font-style:normal;font-variant:normal;font-weight:normal;font-stretch:normal;font-family:arial;-inkscape-font-specification:arial;fill:#b5b5b5;fill-opacity:1;stroke-width:0.01747563"
             id="path1528" />
          <path
             d="m 471.52918,70.439657 0.0395,-0.0062 q 0.003,0.02374 0.0184,0.03638 0.0153,0.01265 0.0426,0.01265 0.0275,0 0.0408,-0.01109 0.0133,-0.01131 0.0133,-0.0264 0,-0.01353 -0.0118,-0.0213 -0.008,-0.0053 -0.0408,-0.01353 -0.0439,-0.01109 -0.061,-0.01908 -0.0169,-0.0082 -0.0257,-0.02241 -0.009,-0.01442 -0.009,-0.03173 0,-0.01575 0.007,-0.02906 0.007,-0.01353 0.0197,-0.02241 0.009,-0.0069 0.0253,-0.01154 0.0162,-0.0049 0.0346,-0.0049 0.0277,0 0.0486,0.008 0.0211,0.008 0.0311,0.02174 0.01,0.01353 0.0138,0.03638 l -0.039,0.0053 q -0.003,-0.01819 -0.0155,-0.0284 -0.0126,-0.01021 -0.0359,-0.01021 -0.0275,0 -0.0393,0.0091 -0.0118,0.0091 -0.0118,0.0213 0,0.0078 0.005,0.01398 0.005,0.0064 0.0153,0.01065 0.006,0.0022 0.0353,0.01021 0.0424,0.01131 0.059,0.01864 0.0169,0.0071 0.0264,0.02085 0.01,0.01376 0.01,0.03417 0,0.01997 -0.0118,0.03772 -0.0115,0.01753 -0.0335,0.02729 -0.022,0.0095 -0.0497,0.0095 -0.0459,0 -0.0701,-0.01908 -0.024,-0.01908 -0.0306,-0.05657 z"
             style="font-style:normal;font-variant:normal;font-weight:normal;font-stretch:normal;font-size:0.45436633px;font-family:arial;-inkscape-font-specification:arial;baseline-shift:super;fill:#b5b5b5;fill-opacity:1;stroke-width:0.01747563"
             id="path1530" />
          <path
             d="m 471.85953,70.474267 0.006,0.03528 q -0.0169,0.0036 -0.0302,0.0036 -0.0217,0 -0.0337,-0.0069 -0.012,-0.0069 -0.0169,-0.01797 -0.005,-0.01131 -0.005,-0.04726 v -0.135555 h -0.0293 v -0.03106 h 0.0293 v -0.05835 l 0.0397,-0.02396 v 0.08231 h 0.0401 v 0.03106 h -0.0401 v 0.137774 q 0,0.01708 0.002,0.02196 0.002,0.0049 0.007,0.0078 0.005,0.0029 0.0137,0.0029 0.007,0 0.0175,-0.0016 z"
             style="font-style:normal;font-variant:normal;font-weight:normal;font-stretch:normal;font-size:0.45436633px;font-family:arial;-inkscape-font-specification:arial;baseline-shift:super;fill:#b5b5b5;fill-opacity:1;stroke-width:0.01747563"
             id="path1532" />
        </g>
        <g
           transform="translate(455.55174,-206.26189)"
           id="g1563"
           style="display:inline">
          <path
             inkscape:connector-curvature="0"
             d="m 13.461246,294.56976 c -0.003,0 -0.006,-8.8e-4 -0.0086,-0.002 -0.07208,-0.0372 -0.134385,-0.053 -0.209084,-0.053 -0.07432,0 -0.144895,0.0177 -0.209084,0.053 -0.009,0.005 -0.02027,9.1e-4 -0.02553,-0.007 -0.0049,-0.009 -0.0015,-0.0207 0.0075,-0.0255 0.06982,-0.0379 0.146396,-0.0574 0.227102,-0.0574 0.07996,0 0.149774,0.0177 0.226351,0.057 0.0094,0.005 0.01277,0.0161 0.0079,0.0251 -0.0034,0.006 -0.0098,0.0105 -0.01651,0.0105 z m -0.537161,0.19708 c -0.0037,0 -0.0075,-9.1e-4 -0.01088,-0.004 -0.0086,-0.006 -0.01051,-0.0177 -0.0045,-0.0263 0.03716,-0.0526 0.08446,-0.0938 0.140765,-0.12274 0.117867,-0.0608 0.268768,-0.0612 0.387011,-4.3e-4 0.05631,0.0289 0.103604,0.0698 0.140766,0.12199 0.006,0.008 0.0042,0.0203 -0.0045,0.0263 -0.0086,0.006 -0.02027,0.004 -0.02627,-0.005 -0.03378,-0.0473 -0.07657,-0.0844 -0.127252,-0.11037 -0.107732,-0.0551 -0.245496,-0.0551 -0.352852,4.3e-4 -0.05105,0.0263 -0.09384,0.0638 -0.127628,0.11111 -0.003,0.005 -0.0086,0.008 -0.01464,0.008 z m 0.234609,0.45308 c -0.0049,0 -0.0098,-0.002 -0.01314,-0.005 -0.03266,-0.0326 -0.0503,-0.0537 -0.07545,-0.0991 -0.0259,-0.0462 -0.03941,-0.10247 -0.03941,-0.1629 0,-0.11149 0.09535,-0.20234 0.212462,-0.20234 0.117117,0 0.212462,0.0908 0.212462,0.20234 0,0.0105 -0.0083,0.0188 -0.01876,0.0188 -0.01051,0 -0.01877,-0.008 -0.01877,-0.0188 0,-0.0908 -0.07845,-0.1648 -0.174926,-0.1648 -0.09647,0 -0.174924,0.0739 -0.174924,0.1648 0,0.054 0.01202,0.10397 0.03491,0.14451 0.02402,0.0432 0.04054,0.0616 0.06945,0.0908 0.0072,0.007 0.0072,0.0191 0,0.0267 -0.0042,0.004 -0.009,0.005 -0.01389,0.005 z m 0.269144,-0.0695 c -0.04467,0 -0.08408,-0.0112 -0.116367,-0.0334 -0.05593,-0.0379 -0.08934,-0.0995 -0.08934,-0.1648 0,-0.0105 0.0083,-0.0188 0.01877,-0.0188 0.01051,0 0.01877,0.008 0.01877,0.0188 0,0.053 0.02702,0.10286 0.07282,0.13364 0.02665,0.018 0.05781,0.0267 0.09535,0.0267 0.009,0 0.02402,-9.1e-4 0.03904,-0.004 0.01014,-0.002 0.0199,0.005 0.02177,0.0154 0.0019,0.0102 -0.0049,0.0199 -0.01539,0.0218 -0.02139,0.004 -0.04016,0.005 -0.04542,0.005 z m -0.07545,0.0774 c -0.0015,0 -0.0034,-4.3e-4 -0.0049,-8.8e-4 -0.05969,-0.0165 -0.09872,-0.0387 -0.139639,-0.0788 -0.05255,-0.0522 -0.08145,-0.12163 -0.08145,-0.19594 0,-0.0609 0.0518,-0.11037 0.115616,-0.11037 0.06381,0 0.115615,0.0495 0.115615,0.11037 0,0.0402 0.03491,0.0728 0.07808,0.0728 0.04317,0 0.07808,-0.0326 0.07808,-0.0728 0,-0.14153 -0.121997,-0.25639 -0.272148,-0.25639 -0.106606,0 -0.204203,0.0593 -0.248122,0.15127 -0.01464,0.0304 -0.02215,0.0661 -0.02215,0.10512 0,0.0293 0.0026,0.0754 0.02515,0.1355 0.0037,0.01 -0.0011,0.0207 -0.01088,0.024 -0.0098,0.004 -0.02065,-9.1e-4 -0.02402,-0.0109 -0.01839,-0.0491 -0.0274,-0.098 -0.0274,-0.14865 0,-0.0451 0.0086,-0.086 0.02553,-0.12162 0.04992,-0.10473 0.160661,-0.17267 0.281907,-0.17267 0.170795,0 0.309684,0.13175 0.309684,0.29391 0,0.0609 -0.0518,0.11037 -0.115616,0.11037 -0.06381,0 -0.115615,-0.0495 -0.115615,-0.11037 0,-0.0402 -0.03491,-0.0728 -0.07808,-0.0728 -0.04317,0 -0.07808,0.0326 -0.07808,0.0728 0,0.0642 0.02477,0.12426 0.0702,0.1693 0.03567,0.0353 0.06982,0.0548 0.122748,0.0695 0.01014,0.003 0.01576,0.0131 0.01314,0.0229 -0.0019,0.009 -0.0098,0.0142 -0.01765,0.0142 z"
             id="path2"
             style="fill:#dddddd;fill-opacity:1;stroke-width:0.03753749" />
          <g
             id="g1556">
            <circle
               id="circle2"
               r="0.1048889"
               cy="294.96561"
               cx="18.349434"
               style="fill:#cdcdcd;fill-opacity:1;stroke-width:0.03277778" />
            <path
               inkscape:connector-curvature="0"
               id="path4"
               d="m 18.2511,294.63782 -0.05998,0.0656 h -0.103906 c -0.03606,0 -0.06555,0.0295 -0.06555,0.0656 v 0.39333 c 0,0.0361 0.0295,0.0656 0.06555,0.0656 h 0.524445 c 0.03606,0 0.06555,-0.0295 0.06555,-0.0656 v -0.39333 c 0,-0.0361 -0.0295,-0.0656 -0.06555,-0.0656 H 18.50775 l -0.05998,-0.0656 z m 0.09833,0.49166 c -0.09047,0 -0.163889,-0.0734 -0.163889,-0.16389 0,-0.0905 0.07342,-0.16389 0.163889,-0.16389 0.09047,0 0.163889,0.0734 0.163889,0.16389 0,0.0905 -0.07342,0.16389 -0.163889,0.16389 z"
               style="fill:#cdcdcd;fill-opacity:1;stroke-width:0.03277778" />
          </g>
          <path
             inkscape:connector-curvature="0"
             d="m 8.2468964,295.01042 c 0.05156,0 0.092871,-0.0415 0.092871,-0.0931 l 3.043e-4,-0.18636 c 0,-0.0516 -0.041621,-0.0931 -0.093183,-0.0931 -0.05156,0 -0.093183,0.0415 -0.093183,0.0931 v 0.18636 c 0,0.0516 0.041623,0.0931 0.093183,0.0931 z m 0.1646218,-0.0931 c 0,0.0931 -0.078894,0.15841 -0.1646218,0.15841 -0.085728,0 -0.1646218,-0.0652 -0.1646218,-0.15841 h -0.052803 c 0,0.10591 0.084484,0.19351 0.1863644,0.20872 v 0.10178 h 0.062121 v -0.10178 c 0.1018797,-0.015 0.1863644,-0.10251 0.1863644,-0.20872 z"
             id="path2-9"
             style="fill:#cdcdcd;fill-opacity:1;stroke-width:0.03106072" />
        </g>
        <path
           style="fill:#f0f0f0;fill-opacity:1;stroke-width:0.06585521"
           id="path4-0"
           d="m 469.30031,77.278432 h -0.0659 v -0.13171 c 0,-0.181761 -0.14751,-0.329276 -0.32928,-0.329276 -0.18176,0 -0.32928,0.147515 -0.32928,0.329276 v 0.13171 h -0.0659 c -0.0724,0 -0.13171,0.05927 -0.13171,0.131711 v 0.658552 c 0,0.07244 0.0593,0.131711 0.13171,0.131711 h 0.79026 c 0.0724,0 0.13171,-0.05927 0.13171,-0.131711 v -0.658552 c 0,-0.07244 -0.0593,-0.131711 -0.13171,-0.131711 z m -0.39514,0.592697 c -0.0724,0 -0.13171,-0.05927 -0.13171,-0.13171 0,-0.07244 0.0593,-0.131711 0.13171,-0.131711 0.0724,0 0.13172,0.05927 0.13172,0.131711 0,0.07244 -0.0593,0.13171 -0.13172,0.13171 z m 0.20416,-0.592697 h -0.40831 v -0.13171 c 0,-0.112615 0.0915,-0.204152 0.20415,-0.204152 0.11266,0 0.20416,0.09153 0.20416,0.204152 z"
           inkscape:connector-curvature="0" />
        <path
           sodipodi:nodetypes="ccssssc"
           inkscape:connector-curvature="0"
           id="rect817-8"
           d="m 475.26187,67.518929 -12.71344,19.196096 v 2.962762 c 0,0.60847 0.48965,1.09864 1.09812,1.09864 h 10.51719 c 0.60848,0 1.09813,-0.49017 1.09813,-1.09864 z"
           style="display:inline;opacity:1;vector-effect:none;fill:url(#linearGradient1069);fill-opacity:1;stroke:none;stroke-width:1.17704606;stroke-linecap:round;stroke-linejoin:round;stroke-miterlimit:4;stroke-dasharray:none;stroke-dashoffset:0;stroke-opacity:1;paint-order:stroke fill markers" />
      </g>
    </g>
  </g>
</svg>
